<svg xmlns="http://www.w3.org/2000/svg" viewBox="0 0 800 600" width="800" height="600">
  <defs>
    <marker id="arrow" markerWidth="10" markerHeight="7" refX="10" refY="3.5" orient="auto">
      <polygon points="0 0, 10 3.5, 0 7" fill="#00d4ff"/>
    </marker>
    <marker id="arrow-green" markerWidth="10" markerHeight="7" refX="10" refY="3.5" orient="auto">
      <polygon points="0 0, 10 3.5, 0 7" fill="#22c55e"/>
    </marker>
    <marker id="arrow-orange" markerWidth="10" markerHeight="7" refX="10" refY="3.5" orient="auto">
      <polygon points="0 0, 10 3.5, 0 7" fill="#f97316"/>
    </marker>
    <marker id="arrow-white" markerWidth="8" markerHeight="6" refX="8" refY="3" orient="auto">
      <polygon points="0 0, 8 3, 0 6" fill="#e2e8f0"/>
    </marker>
    <pattern id="grid" width="20" height="20" patternUnits="userSpaceOnUse">
      <path d="M 20 0 L 0 0 0 20" fill="none" stroke="#1a2332" stroke-width="0.5"/>
    </pattern>
    <filter id="glow-cyan">
      <feGaussianBlur stdDeviation="2" result="coloredBlur"/>
      <feMerge><feMergeNode in="coloredBlur"/><feMergeNode in="SourceGraphic"/></feMerge>
    </filter>
    <filter id="glow-green">
      <feGaussianBlur stdDeviation="1.5" result="coloredBlur"/>
      <feMerge><feMergeNode in="coloredBlur"/><feMergeNode in="SourceGraphic"/></feMerge>
    </filter>
    <linearGradient id="bg-grad" x1="0%" y1="0%" x2="100%" y2="100%">
      <stop offset="0%" style="stop-color:#0d1117"/>
      <stop offset="100%" style="stop-color:#0a0f1a"/>
    </linearGradient>
    <linearGradient id="cyan-grad" x1="0%" y1="0%" x2="0%" y2="100%">
      <stop offset="0%" style="stop-color:#00d4ff;stop-opacity:0.25"/>
      <stop offset="100%" style="stop-color:#00d4ff;stop-opacity:0.08"/>
    </linearGradient>
    <linearGradient id="orange-grad" x1="0%" y1="0%" x2="0%" y2="100%">
      <stop offset="0%" style="stop-color:#f97316;stop-opacity:0.25"/>
      <stop offset="100%" style="stop-color:#f97316;stop-opacity:0.08"/>
    </linearGradient>
    <linearGradient id="purple-grad" x1="0%" y1="0%" x2="0%" y2="100%">
      <stop offset="0%" style="stop-color:#8b5cf6;stop-opacity:0.25"/>
      <stop offset="100%" style="stop-color:#8b5cf6;stop-opacity:0.08"/>
    </linearGradient>
    <linearGradient id="green-grad" x1="0%" y1="0%" x2="0%" y2="100%">
      <stop offset="0%" style="stop-color:#22c55e;stop-opacity:0.25"/>
      <stop offset="100%" style="stop-color:#22c55e;stop-opacity:0.08"/>
    </linearGradient>
  </defs>

  <!-- Background -->
  <rect width="800" height="600" fill="url(#bg-grad)"/>
  <rect width="800" height="600" fill="url(#grid)"/>

  <!-- Title -->
  <text x="400" y="30" text-anchor="middle" font-family="monospace" font-size="16" font-weight="bold" fill="#ffffff">Transformer Architecture — "Attention Is All You Need" (2017)</text>
  <line x1="60" y1="38" x2="740" y2="38" stroke="#00d4ff" stroke-width="0.5" opacity="0.4"/>

  <!-- ===================== ENCODER COLUMN (left) ===================== -->
  <text x="165" y="60" text-anchor="middle" font-family="monospace" font-size="11" font-weight="bold" fill="#22c55e">ENCODER</text>
  <rect x="80" y="65" width="170" height="16" rx="3" fill="none" stroke="#22c55e" stroke-width="0.6" opacity="0.4"/>

  <!-- Encoder: Input Embedding + Positional Encoding -->
  <rect x="88" y="535" width="154" height="34" rx="4" fill="url(#green-grad)" stroke="#22c55e" stroke-width="1.2"/>
  <text x="165" y="550" text-anchor="middle" font-family="monospace" font-size="9" fill="#22c55e">Input Embedding</text>
  <text x="165" y="562" text-anchor="middle" font-family="monospace" font-size="8" fill="#22c55e" opacity="0.8">+ Positional Encoding</text>

  <!-- Arrow up from input -->
  <line x1="165" y1="534" x2="165" y2="514" stroke="#22c55e" stroke-width="1.2" marker-end="url(#arrow-green)"/>

  <!-- Encoder: Add & Norm 1 -->
  <rect x="88" y="490" width="154" height="22" rx="4" fill="url(#purple-grad)" stroke="#8b5cf6" stroke-width="1.2"/>
  <text x="165" y="504" text-anchor="middle" font-family="monospace" font-size="9" fill="#8b5cf6">Add &amp; Norm</text>

  <!-- Arrow -->
  <line x1="165" y1="489" x2="165" y2="469" stroke="#00d4ff" stroke-width="1.2" marker-end="url(#arrow)"/>

  <!-- Encoder: Multi-Head Self-Attention -->
  <rect x="88" y="430" width="154" height="38" rx="4" fill="url(#cyan-grad)" stroke="#00d4ff" stroke-width="1.5" filter="url(#glow-cyan)"/>
  <text x="165" y="445" text-anchor="middle" font-family="monospace" font-size="9" font-weight="bold" fill="#00d4ff">Multi-Head</text>
  <text x="165" y="457" text-anchor="middle" font-family="monospace" font-size="9" font-weight="bold" fill="#00d4ff">Self-Attention</text>

  <!-- Residual connection encoder -->
  <path d="M 88 468 Q 60 468 60 490 Q 60 501 88 501" fill="none" stroke="#8b5cf6" stroke-width="1" stroke-dasharray="3,2" opacity="0.6"/>
  <text x="50" y="487" text-anchor="middle" font-family="monospace" font-size="7" fill="#8b5cf6" opacity="0.8">skip</text>

  <!-- Arrow -->
  <line x1="165" y1="429" x2="165" y2="409" stroke="#00d4ff" stroke-width="1.2" marker-end="url(#arrow)"/>

  <!-- Encoder: Add & Norm 2 -->
  <rect x="88" y="386" width="154" height="22" rx="4" fill="url(#purple-grad)" stroke="#8b5cf6" stroke-width="1.2"/>
  <text x="165" y="400" text-anchor="middle" font-family="monospace" font-size="9" fill="#8b5cf6">Add &amp; Norm</text>

  <!-- Arrow -->
  <line x1="165" y1="385" x2="165" y2="365" stroke="#f97316" stroke-width="1.2" marker-end="url(#arrow-orange)"/>

  <!-- Encoder: Feed-Forward -->
  <rect x="88" y="326" width="154" height="38" rx="4" fill="url(#orange-grad)" stroke="#f97316" stroke-width="1.5"/>
  <text x="165" y="341" text-anchor="middle" font-family="monospace" font-size="9" font-weight="bold" fill="#f97316">Feed-Forward</text>
  <text x="165" y="353" text-anchor="middle" font-family="monospace" font-size="8" fill="#f97316" opacity="0.8">Network (FFN)</text>

  <!-- Residual connection 2 -->
  <path d="M 88 364 Q 60 364 60 386 Q 60 397 88 397" fill="none" stroke="#8b5cf6" stroke-width="1" stroke-dasharray="3,2" opacity="0.6"/>

  <!-- Arrow -->
  <line x1="165" y1="325" x2="165" y2="305" stroke="#22c55e" stroke-width="1.2" marker-end="url(#arrow-green)"/>

  <!-- Encoder: Add & Norm 3 -->
  <rect x="88" y="282" width="154" height="22" rx="4" fill="url(#purple-grad)" stroke="#8b5cf6" stroke-width="1.2"/>
  <text x="165" y="296" text-anchor="middle" font-family="monospace" font-size="9" fill="#8b5cf6">Add &amp; Norm</text>

  <!-- Nx label for encoder -->
  <rect x="75" y="270" width="5" height="300" rx="2" fill="#22c55e" opacity="0.15"/>
  <text x="70" y="415" text-anchor="middle" font-family="monospace" font-size="9" fill="#22c55e" opacity="0.7" transform="rotate(-90,70,415)">× N layers</text>

  <!-- Arrow up to output -->
  <line x1="165" y1="281" x2="165" y2="261" stroke="#22c55e" stroke-width="1.2" marker-end="url(#arrow-green)"/>

  <!-- Encoder output -->
  <rect x="88" y="238" width="154" height="22" rx="4" fill="none" stroke="#22c55e" stroke-width="1" stroke-dasharray="4,2"/>
  <text x="165" y="252" text-anchor="middle" font-family="monospace" font-size="9" fill="#22c55e" opacity="0.8">Encoder Output (K, V)</text>

  <!-- ===================== DECODER COLUMN (center-right) ===================== -->
  <text x="430" y="60" text-anchor="middle" font-family="monospace" font-size="11" font-weight="bold" fill="#4a9eff">DECODER</text>
  <rect x="345" y="65" width="170" height="16" rx="3" fill="none" stroke="#4a9eff" stroke-width="0.6" opacity="0.4"/>

  <!-- Decoder: Output Embedding + Positional Encoding -->
  <rect x="353" y="535" width="154" height="34" rx="4" fill="url(#green-grad)" stroke="#22c55e" stroke-width="1.2"/>
  <text x="430" y="550" text-anchor="middle" font-family="monospace" font-size="9" fill="#22c55e">Output Embedding</text>
  <text x="430" y="562" text-anchor="middle" font-family="monospace" font-size="8" fill="#22c55e" opacity="0.8">+ Positional Encoding</text>

  <line x1="430" y1="534" x2="430" y2="514" stroke="#22c55e" stroke-width="1.2" marker-end="url(#arrow-green)"/>

  <!-- Decoder: Add & Norm 1 -->
  <rect x="353" y="490" width="154" height="22" rx="4" fill="url(#purple-grad)" stroke="#8b5cf6" stroke-width="1.2"/>
  <text x="430" y="504" text-anchor="middle" font-family="monospace" font-size="9" fill="#8b5cf6">Add &amp; Norm</text>

  <line x1="430" y1="489" x2="430" y2="469" stroke="#00d4ff" stroke-width="1.2" marker-end="url(#arrow)"/>

  <!-- Decoder: Masked Multi-Head Attention -->
  <rect x="353" y="430" width="154" height="38" rx="4" fill="url(#cyan-grad)" stroke="#00d4ff" stroke-width="1.5" filter="url(#glow-cyan)"/>
  <text x="430" y="444" text-anchor="middle" font-family="monospace" font-size="8.5" font-weight="bold" fill="#00d4ff">Masked Multi-Head</text>
  <text x="430" y="456" text-anchor="middle" font-family="monospace" font-size="8.5" font-weight="bold" fill="#00d4ff">Self-Attention</text>

  <!-- Masked badge -->
  <rect x="413" y="423" width="34" height="10" rx="2" fill="#ef4444" opacity="0.85"/>
  <text x="430" y="431" text-anchor="middle" font-family="monospace" font-size="7" fill="#ffffff">MASKED</text>

  <!-- Residual dec 1 -->
  <path d="M 353 468 Q 325 468 325 490 Q 325 501 353 501" fill="none" stroke="#8b5cf6" stroke-width="1" stroke-dasharray="3,2" opacity="0.6"/>

  <line x1="430" y1="429" x2="430" y2="409" stroke="#00d4ff" stroke-width="1.2" marker-end="url(#arrow)"/>

  <!-- Decoder: Add & Norm 2 -->
  <rect x="353" y="386" width="154" height="22" rx="4" fill="url(#purple-grad)" stroke="#8b5cf6" stroke-width="1.2"/>
  <text x="430" y="400" text-anchor="middle" font-family="monospace" font-size="9" fill="#8b5cf6">Add &amp; Norm</text>

  <line x1="430" y1="385" x2="430" y2="365" stroke="#00d4ff" stroke-width="1.2" marker-end="url(#arrow)"/>

  <!-- Decoder: Cross-Attention -->
  <rect x="353" y="326" width="154" height="38" rx="4" fill="url(#cyan-grad)" stroke="#00d4ff" stroke-width="1.5" filter="url(#glow-cyan)"/>
  <text x="430" y="340" text-anchor="middle" font-family="monospace" font-size="8.5" font-weight="bold" fill="#00d4ff">Cross-Attention</text>
  <text x="430" y="352" text-anchor="middle" font-family="monospace" font-size="8" fill="#00d4ff" opacity="0.85">(Q from dec, K/V from enc)</text>

  <!-- Cross-attention arrow from encoder output -->
  <path d="M 242 249 Q 297 249 297 344 Q 297 344 353 344" fill="none" stroke="#eab308" stroke-width="1.4" stroke-dasharray="5,3" marker-end="url(#arrow-white)" opacity="0.8"/>
  <text x="290" y="243" text-anchor="middle" font-family="monospace" font-size="7.5" fill="#eab308" opacity="0.9">K, V context</text>

  <!-- Residual dec 2 -->
  <path d="M 353 364 Q 325 364 325 386 Q 325 397 353 397" fill="none" stroke="#8b5cf6" stroke-width="1" stroke-dasharray="3,2" opacity="0.6"/>

  <line x1="430" y1="325" x2="430" y2="305" stroke="#f97316" stroke-width="1.2" marker-end="url(#arrow-orange)"/>

  <!-- Decoder: Add & Norm 3 -->
  <rect x="353" y="282" width="154" height="22" rx="4" fill="url(#purple-grad)" stroke="#8b5cf6" stroke-width="1.2"/>
  <text x="430" y="296" text-anchor="middle" font-family="monospace" font-size="9" fill="#8b5cf6">Add &amp; Norm</text>

  <line x1="430" y1="281" x2="430" y2="261" stroke="#f97316" stroke-width="1.2" marker-end="url(#arrow-orange)"/>

  <!-- Decoder: FFN -->
  <rect x="353" y="222" width="154" height="38" rx="4" fill="url(#orange-grad)" stroke="#f97316" stroke-width="1.5"/>
  <text x="430" y="237" text-anchor="middle" font-family="monospace" font-size="9" font-weight="bold" fill="#f97316">Feed-Forward</text>
  <text x="430" y="249" text-anchor="middle" font-family="monospace" font-size="8" fill="#f97316" opacity="0.8">Network (FFN)</text>

  <!-- Nx label for decoder -->
  <rect x="520" y="215" width="5" height="300" rx="2" fill="#4a9eff" opacity="0.15"/>
  <text x="534" y="360" text-anchor="middle" font-family="monospace" font-size="9" fill="#4a9eff" opacity="0.7" transform="rotate(90,534,360)">× N layers</text>

  <line x1="430" y1="221" x2="430" y2="201" stroke="#22c55e" stroke-width="1.2" marker-end="url(#arrow-green)"/>

  <!-- Decoder output: Add Norm -->
  <rect x="353" y="178" width="154" height="22" rx="4" fill="url(#purple-grad)" stroke="#8b5cf6" stroke-width="1.2"/>
  <text x="430" y="192" text-anchor="middle" font-family="monospace" font-size="9" fill="#8b5cf6">Add &amp; Norm</text>

  <line x1="430" y1="177" x2="430" y2="157" stroke="#e2e8f0" stroke-width="1.2" marker-end="url(#arrow-white)"/>

  <!-- Linear + Softmax -->
  <rect x="353" y="130" width="154" height="26" rx="4" fill="none" stroke="#eab308" stroke-width="1.5"/>
  <text x="430" y="147" text-anchor="middle" font-family="monospace" font-size="9" fill="#eab308">Linear + Softmax</text>

  <line x1="430" y1="129" x2="430" y2="109" stroke="#eab308" stroke-width="1.4" marker-end="url(#arrow-white)"/>

  <!-- Output probabilities -->
  <rect x="353" y="88" width="154" height="20" rx="4" fill="none" stroke="#eab308" stroke-width="1" stroke-dasharray="4,2"/>
  <text x="430" y="101" text-anchor="middle" font-family="monospace" font-size="9" fill="#eab308">Output Probabilities</text>

  <!-- ===================== ATTENTION ZOOM-IN (right) ===================== -->
  <text x="670" y="60" text-anchor="middle" font-family="monospace" font-size="10" font-weight="bold" fill="#ffffff" opacity="0.85">Attention Mechanism</text>
  <rect x="555" y="65" width="230" height="295" rx="6" fill="#111827" stroke="#00d4ff" stroke-width="0.8" opacity="0.5"/>

  <!-- Q K V boxes -->
  <rect x="570" y="280" width="50" height="22" rx="3" fill="#1e3a4a" stroke="#00d4ff" stroke-width="1.2"/>
  <text x="595" y="294" text-anchor="middle" font-family="monospace" font-size="10" font-weight="bold" fill="#00d4ff">Q</text>

  <rect x="635" y="280" width="50" height="22" rx="3" fill="#1e3a4a" stroke="#00d4ff" stroke-width="1.2"/>
  <text x="660" y="294" text-anchor="middle" font-family="monospace" font-size="10" font-weight="bold" fill="#00d4ff">K</text>

  <rect x="700" y="280" width="50" height="22" rx="3" fill="#1e3a4a" stroke="#00d4ff" stroke-width="1.2"/>
  <text x="725" y="294" text-anchor="middle" font-family="monospace" font-size="10" font-weight="bold" fill="#00d4ff">V</text>

  <text x="595" y="275" text-anchor="middle" font-family="monospace" font-size="7" fill="#e2e8f0" opacity="0.7">Query</text>
  <text x="660" y="275" text-anchor="middle" font-family="monospace" font-size="7" fill="#e2e8f0" opacity="0.7">Key</text>
  <text x="725" y="275" text-anchor="middle" font-family="monospace" font-size="7" fill="#e2e8f0" opacity="0.7">Value</text>

  <!-- Matmul Q·K^T -->
  <line x1="595" y1="279" x2="628" y2="250" stroke="#00d4ff" stroke-width="1" opacity="0.7"/>
  <line x1="660" y1="279" x2="628" y2="250" stroke="#00d4ff" stroke-width="1" opacity="0.7"/>
  <rect x="608" y="238" width="40" height="18" rx="3" fill="#1a2332" stroke="#4a9eff" stroke-width="1"/>
  <text x="628" y="250" text-anchor="middle" font-family="monospace" font-size="7.5" fill="#4a9eff">QK^T/√d_k</text>

  <!-- Softmax -->
  <line x1="628" y1="237" x2="628" y2="217" stroke="#4a9eff" stroke-width="1" marker-end="url(#arrow)"/>
  <rect x="603" y="200" width="50" height="18" rx="3" fill="#1a2332" stroke="#22c55e" stroke-width="1"/>
  <text x="628" y="212" text-anchor="middle" font-family="monospace" font-size="8" fill="#22c55e">Softmax</text>

  <!-- Matmul with V -->
  <line x1="628" y1="199" x2="660" y2="178" stroke="#22c55e" stroke-width="1" opacity="0.7"/>
  <line x1="725" y1="279" x2="725" y2="178" stroke="#00d4ff" stroke-width="1" opacity="0.5" stroke-dasharray="3,2"/>
  <line x1="725" y1="178" x2="680" y2="178" stroke="#00d4ff" stroke-width="1" opacity="0.5"/>
  <rect x="640" y="166" width="40" height="18" rx="3" fill="#1a2332" stroke="#22c55e" stroke-width="1"/>
  <text x="660" y="178" text-anchor="middle" font-family="monospace" font-size="8" fill="#22c55e">× V</text>

  <!-- Output -->
  <line x1="660" y1="165" x2="660" y2="145" stroke="#22c55e" stroke-width="1.2" marker-end="url(#arrow-green)"/>
  <rect x="630" y="128" width="60" height="18" rx="3" fill="#0d2a1a" stroke="#22c55e" stroke-width="1.2"/>
  <text x="660" y="140" text-anchor="middle" font-family="monospace" font-size="8" fill="#22c55e">Attention(Q,K,V)</text>

  <!-- Formula -->
  <rect x="563" y="82" width="214" height="38" rx="4" fill="#0a1628" stroke="#4a9eff" stroke-width="0.8"/>
  <text x="670" y="97" text-anchor="middle" font-family="monospace" font-size="8.5" fill="#ffffff">Attention(Q,K,V) =</text>
  <text x="670" y="112" text-anchor="middle" font-family="monospace" font-size="8.5" fill="#eab308">softmax(QK^T / √d_k) · V</text>

  <!-- Heads label -->
  <text x="670" y="158" text-anchor="middle" font-family="monospace" font-size="7.5" fill="#f97316">Multi-head: run h attention</text>
  <text x="670" y="168" text-anchor="middle" font-family="monospace" font-size="7.5" fill="#f97316">heads in parallel → concat</text>

  <!-- ===================== SELF-ATTENTION TOKEN VIZ (bottom right) ===================== -->
  <text x="670" y="378" text-anchor="middle" font-family="monospace" font-size="9" font-weight="bold" fill="#ffffff" opacity="0.85">Self-Attention Token Weights</text>
  <rect x="555" y="382" width="230" height="105" rx="6" fill="#111827" stroke="#8b5cf6" stroke-width="0.8" opacity="0.5"/>

  <!-- Tokens -->
  <rect x="565" y="410" width="28" height="16" rx="2" fill="#1a2040" stroke="#4a9eff" stroke-width="1"/>
  <text x="579" y="421" text-anchor="middle" font-family="monospace" font-size="7" fill="#4a9eff">The</text>

  <rect x="601" y="410" width="28" height="16" rx="2" fill="#1a2040" stroke="#00d4ff" stroke-width="1.5"/>
  <text x="615" y="421" text-anchor="middle" font-family="monospace" font-size="7" fill="#00d4ff">cat</text>

  <rect x="637" y="410" width="28" height="16" rx="2" fill="#1a2040" stroke="#4a9eff" stroke-width="1"/>
  <text x="651" y="421" text-anchor="middle" font-family="monospace" font-size="7" fill="#4a9eff">sat</text>

  <rect x="673" y="410" width="28" height="16" rx="2" fill="#1a2040" stroke="#4a9eff" stroke-width="1"/>
  <text x="687" y="421" text-anchor="middle" font-family="monospace" font-size="7" fill="#4a9eff">on</text>

  <rect x="709" y="410" width="28" height="16" rx="2" fill="#1a2040" stroke="#4a9eff" stroke-width="1"/>
  <text x="723" y="421" text-anchor="middle" font-family="monospace" font-size="7" fill="#4a9eff">mat</text>

  <!-- Query token label -->
  <text x="615" y="404" text-anchor="middle" font-family="monospace" font-size="6.5" fill="#eab308">query →</text>

  <!-- Attention weight lines from "cat" to others -->
  <line x1="615" y1="410" x2="579" y2="390" stroke="#22c55e" stroke-width="0.6" opacity="0.3"/>
  <line x1="615" y1="410" x2="615" y2="390" stroke="#22c55e" stroke-width="2.5" opacity="0.9"/>
  <line x1="615" y1="410" x2="651" y2="390" stroke="#22c55e" stroke-width="1.5" opacity="0.6"/>
  <line x1="615" y1="410" x2="687" y2="390" stroke="#22c55e" stroke-width="0.8" opacity="0.35"/>
  <line x1="615" y1="410" x2="723" y2="390" stroke="#22c55e" stroke-width="0.5" opacity="0.2"/>

  <!-- Weight bars above tokens -->
  <rect x="576" y="384" width="6" height="8" rx="1" fill="#22c55e" opacity="0.3"/>
  <rect x="612" y="382" width="6" height="10" rx="1" fill="#22c55e" opacity="0.9"/>
  <rect x="648" y="383" width="6" height="9" rx="1" fill="#22c55e" opacity="0.6"/>
  <rect x="684" y="385" width="6" height="7" rx="1" fill="#22c55e" opacity="0.35"/>
  <rect x="720" y="386" width="6" height="6" rx="1" fill="#22c55e" opacity="0.2"/>

  <text x="579" y="398" text-anchor="middle" font-family="monospace" font-size="6" fill="#22c55e" opacity="0.7">0.05</text>
  <text x="615" y="396" text-anchor="middle" font-family="monospace" font-size="6" fill="#22c55e" opacity="0.9">0.72</text>
  <text x="651" y="397" text-anchor="middle" font-family="monospace" font-size="6" fill="#22c55e" opacity="0.7">0.14</text>
  <text x="687" y="398" text-anchor="middle" font-family="monospace" font-size="6" fill="#22c55e" opacity="0.5">0.06</text>
  <text x="723" y="399" text-anchor="middle" font-family="monospace" font-size="6" fill="#22c55e" opacity="0.4">0.03</text>

  <!-- Legend -->
  <text x="670" y="450" text-anchor="middle" font-family="monospace" font-size="7" fill="#e2e8f0" opacity="0.6">attention weight ∝ token relevance</text>

  <!-- ===================== LEGEND BOTTOM ===================== -->
  <rect x="55" y="82" width="230" height="130" rx="6" fill="#0a0f1a" stroke="#1e293b" stroke-width="1" opacity="0.9"/>
  <text x="170" y="96" text-anchor="middle" font-family="monospace" font-size="8.5" font-weight="bold" fill="#e2e8f0" opacity="0.7">Architecture Legend</text>

  <rect x="65" y="103" width="14" height="10" rx="2" fill="url(#cyan-grad)" stroke="#00d4ff" stroke-width="1"/>
  <text x="86" y="113" font-family="monospace" font-size="8" fill="#e2e8f0">Multi-Head Attention</text>

  <rect x="65" y="120" width="14" height="10" rx="2" fill="url(#orange-grad)" stroke="#f97316" stroke-width="1"/>
  <text x="86" y="130" font-family="monospace" font-size="8" fill="#e2e8f0">Feed-Forward Network</text>

  <rect x="65" y="137" width="14" height="10" rx="2" fill="url(#purple-grad)" stroke="#8b5cf6" stroke-width="1"/>
  <text x="86" y="147" font-family="monospace" font-size="8" fill="#e2e8f0">Layer Normalization</text>

  <rect x="65" y="154" width="14" height="10" rx="2" fill="url(#green-grad)" stroke="#22c55e" stroke-width="1"/>
  <text x="86" y="164" font-family="monospace" font-size="8" fill="#e2e8f0">Positional Encoding</text>

  <line x1="65" y1="176" x2="79" y2="176" stroke="#eab308" stroke-width="1.2" stroke-dasharray="4,2"/>
  <text x="86" y="180" font-family="monospace" font-size="8" fill="#e2e8f0">Cross-Attention (K,V from enc)</text>

  <line x1="65" y1="193" x2="79" y2="193" stroke="#8b5cf6" stroke-width="1" stroke-dasharray="3,2"/>
  <text x="86" y="197" font-family="monospace" font-size="8" fill="#e2e8f0">Residual / Skip Connection</text>

  <!-- GPT vs BERT note -->
  <rect x="55" y="220" width="230" height="55" rx="4" fill="#0a0f1a" stroke="#1e293b" stroke-width="1" opacity="0.9"/>
  <text x="170" y="233" text-anchor="middle" font-family="monospace" font-size="8" font-weight="bold" fill="#e2e8f0" opacity="0.7">Architecture Variants</text>
  <text x="65" y="248" font-family="monospace" font-size="7.5" fill="#4a9eff">GPT (decoder-only):  autoregressive, causal mask</text>
  <text x="65" y="261" font-family="monospace" font-size="7.5" fill="#22c55e">BERT (encoder-only): bidirectional, MLM pre-train</text>
  <text x="65" y="270" font-family="monospace" font-size="7.5" fill="#eab308">T5/Llama (full):       seq2seq or decoder-only SFT</text>

  <!-- Scaling note -->
  <rect x="55" y="280" width="230" height="38" rx="4" fill="#0a0f1a" stroke="#1e293b" stroke-width="1" opacity="0.9"/>
  <text x="170" y="293" text-anchor="middle" font-family="monospace" font-size="7.5" fill="#ef4444" opacity="0.9">Scale: GPT-3 = 175B params</text>
  <text x="170" y="307" text-anchor="middle" font-family="monospace" font-size="7.5" fill="#ef4444" opacity="0.9">Chinchilla law: tokens ≈ 20× params</text>

  <!-- Bottom citation -->
  <text x="400" y="590" text-anchor="middle" font-family="monospace" font-size="7.5" fill="#e2e8f0" opacity="0.35">Vaswani et al., "Attention Is All You Need", NeurIPS 2017 — Module 1 Lesson 3 — AI Security Risk Course</text>
</svg>
